<svg width="1020" height="210" viewBox="0 0 1020 210" fill="none" xmlns="http://www.w3.org/2000/svg">
<path d="M340.489 118.878C334.986 126.583 325.813 130.252 313.338 130.252C293.158 130.252 280.316 120.345 280.316 104.568C280.316 89.1582 293.158 78.8848 313.338 78.8848C325.446 78.8848 334.252 82.5538 340.489 90.2589L341.59 91.3596L354.065 78.8848L352.964 77.7841C346.727 70.8129 334.619 62.374 312.971 62.374C297.928 62.374 284.719 66.41 275.547 73.7481C266.374 81.0862 261.237 91.7265 261.237 104.201C261.237 116.676 266.007 127.316 275.547 134.655C284.719 141.993 297.561 146.029 312.971 146.029C334.252 146.029 346.727 137.957 353.331 130.986L354.432 129.885L341.223 116.676L340.489 118.878Z" fill="white"/>
<path d="M479.18 74.1153C470.007 66.7772 457.532 62.7412 442.489 62.7412C427.446 62.7412 414.971 66.7772 405.798 74.1153C396.626 81.4535 391.856 92.0938 391.856 104.569C391.856 117.043 396.626 127.684 405.798 135.022C414.971 142.36 427.446 146.396 442.489 146.396C457.532 146.396 470.007 142.36 479.18 135.022C488.352 127.684 493.122 117.043 493.122 104.569C493.122 92.4607 488.352 81.8204 479.18 74.1153ZM474.41 104.569C474.41 119.979 461.935 130.252 442.489 130.252C423.043 130.252 410.568 120.346 410.568 104.569C410.568 89.1585 423.043 78.8851 442.489 78.8851C461.935 78.8851 474.41 89.1585 474.41 104.569Z" fill="white"/>
<path d="M803.525 145.295H879.842V129.518H821.504V111.539H876.906V96.4962H821.504V79.9854H879.842V64.2085H803.525V145.295Z" fill="white"/>
<path d="M607.964 119.978L552.561 64.2085H535.683V145.295H553.295V89.525L608.698 145.295H625.576V64.2085H607.964V119.978Z" fill="white"/>
<path d="M695.288 119.978V64.2085H678.043V145.295H694.187L775.273 64.2085H751.057L695.288 119.978Z" fill="white"/>
<path d="M995.417 64.2085L967.165 92.4603L938.913 64.2085H914.331L958.36 108.237V145.295H975.971V108.237L1020 64.2085H995.417Z" fill="white"/>
<path d="M52.4678 52.4676H157.036L104.568 0L52.4678 52.4676Z" fill="#00FFAC"/>
<path d="M52.4676 157.035V52.4668L0 104.568L52.4676 157.035Z" fill="#00FFAC"/>
<path d="M157.036 157.035H52.4678L104.568 209.503L157.036 157.035Z" fill="#00FFAC"/>
<path d="M209.137 104.568L183.086 78.5176V130.985L209.137 104.568Z" fill="#00FFAC"/>
</svg>
