<svg width="211" height="44" viewBox="0 0 211 44" fill="none" xmlns="http://www.w3.org/2000/svg">
<path d="M70.7064 24.9941C69.532 26.5508 67.6748 27.3701 65.1349 27.3701C61.0109 27.3701 58.3618 25.3218 58.3618 22.1264C58.3618 18.931 61.0109 16.8827 65.1349 16.8827C67.6475 16.8827 69.4228 17.6201 70.7337 19.2314L70.9522 19.4772L73.5467 16.8827L73.3556 16.6642C72.0446 15.2167 69.5593 13.4961 65.1349 13.4961C62.0214 13.4961 59.345 14.3154 57.4605 15.8448C55.5487 17.4016 54.5382 19.5592 54.5382 22.0991C54.5382 24.639 55.5487 26.8239 57.4605 28.3533C59.3723 29.8828 62.0214 30.7021 65.1349 30.7021C69.532 30.7021 72.0446 29.0088 73.4102 27.5886L73.6014 27.3701L70.9249 24.6937L70.7064 24.9941Z" fill="white"/>
<path d="M99.2196 15.8448C97.3624 14.3154 94.7679 13.4961 91.709 13.4961C88.6502 13.4961 86.0556 14.3154 84.1985 15.8448C82.314 17.4016 81.3308 19.5592 81.3308 22.0991C81.3308 24.639 82.314 26.8239 84.1985 28.3533C86.0556 29.8828 88.6502 30.7021 91.709 30.7021C94.7679 30.7021 97.3624 29.8828 99.2196 28.3533C101.104 26.7966 102.087 24.639 102.087 22.0991C102.087 19.5592 101.077 17.4016 99.2196 15.8448ZM98.2364 22.1264C98.2364 25.3218 95.6692 27.3701 91.6817 27.3701C87.6943 27.3701 85.1271 25.3218 85.1271 22.1264C85.1271 18.931 87.6943 16.8827 91.6817 16.8827C95.6692 16.8827 98.2364 18.931 98.2364 22.1264Z" fill="white"/>
<path d="M165.832 30.4293H181.563V27.1793H169.573V23.5196H180.935V20.4061H169.573V17.0196H181.563V13.7695H165.832V30.4293Z" fill="white"/>
<path d="M125.711 25.2129L114.268 13.7695H110.827V30.4293H114.405V18.986L125.848 30.4293H129.262V13.7695H125.711V25.2129Z" fill="white"/>
<path d="M143.628 25.2129V13.7695H140.077V30.4293H143.355L160.014 13.7695H155.071L143.628 25.2129Z" fill="white"/>
<path d="M205.296 13.7695L199.478 19.5868L193.688 13.7695H188.636L197.703 22.8368V30.4293H201.281V22.8368L210.348 13.7695H205.296Z" fill="white"/>
<path d="M11.4961 11.366H32.9899L22.2294 0.605469L11.4961 11.366Z" fill="#00FEA4"/>
<path d="M11.4962 32.861V11.3672L0.735596 22.1278L11.4962 32.861Z" fill="#00FEA4"/>
<path d="M32.9899 32.8594H11.4961L22.2294 43.62L32.9899 32.8594Z" fill="#00FEA4"/>
<path d="M43.7505 22.1264L38.3702 16.7461V27.4794L43.7505 22.1264Z" fill="#00FEA4"/>
</svg>
