<svg width="160" height="50" viewBox="0 0 160 50" fill="none" xmlns="http://www.w3.org/2000/svg">
<path d="M29.1442 23.3309C29.0636 25.4006 28.5775 27.3702 27.6331 29.2149C26.3331 31.754 24.4358 33.7265 21.947 35.1266C20.6997 35.8295 19.3747 36.3212 17.9747 36.6046C16.5136 36.9018 15.0386 36.9796 13.5525 36.8046C12.0497 36.6268 10.6108 36.2379 9.23863 35.5961C7.89418 34.9683 6.67751 34.1515 5.58585 33.1403C4.67196 32.293 3.88585 31.3401 3.22751 30.2844C2.2914 28.7815 1.66085 27.1563 1.33863 25.4117C1.12196 24.2393 1.07196 23.0586 1.14696 21.8752C1.23585 20.45 1.55529 19.0721 2.08307 17.7441C2.68029 16.244 3.50529 14.8855 4.56918 13.6687C6.03585 11.9907 7.79974 10.735 9.86363 9.89605C11.0775 9.40155 12.3331 9.09041 13.6358 8.94595C15.2247 8.77093 16.7914 8.88483 18.347 9.24598C20.1886 9.67103 21.8692 10.4461 23.3858 11.5601C25.272 12.9436 26.7331 14.6855 27.7497 16.7968C28.4275 18.2025 28.8608 19.6749 29.0386 21.2251C29.0858 21.6362 29.1081 22.053 29.1414 22.4669H29.1442C29.0275 22.4669 28.9081 22.4669 28.7914 22.4669C26.3331 22.4669 23.872 22.4669 21.4136 22.4669C19.4331 22.4669 17.4525 22.4669 15.4747 22.4669C15.3692 22.4669 15.2664 22.4752 15.1608 22.478V23.3337H15.5025C17.4553 23.3337 19.4081 23.3337 21.3608 23.3337C23.9553 23.3337 26.5497 23.3337 29.1442 23.3337V23.3281V23.3309Z" fill="#1298D4"/>
<path d="M80.0387 42.4904C79.8109 42.8738 79.4886 43.1599 79.0886 43.3377C78.272 43.7017 77.4192 43.7767 76.547 43.5794C75.8192 43.4155 75.3414 42.9571 75.0498 42.2876C74.7748 41.6598 74.6942 40.9958 74.7748 40.3235C74.872 39.5067 74.9886 38.6928 75.1303 37.8843C75.272 37.0759 75.4386 36.2703 75.6303 35.473C75.8386 34.6062 76.047 33.7339 76.4359 32.9227C76.7803 32.2032 77.1831 31.517 77.7775 30.9669C78.722 30.0946 79.8331 29.8279 81.072 30.1001C81.8136 30.2641 82.2942 30.7335 82.4886 31.4781C82.5053 31.5447 82.5359 31.6086 82.5887 31.6753C82.7859 31.2086 82.7942 30.703 82.9359 30.214H86.0192C86.0137 30.2891 86.0137 30.3585 85.9998 30.4252C85.7164 31.7309 85.4331 33.0366 85.147 34.3423C84.7081 36.3536 84.2664 38.365 83.8248 40.3735C83.4914 41.8987 83.1748 43.4294 82.8164 44.949C82.4859 46.3547 81.7303 47.4771 80.4609 48.2188C79.9331 48.5272 79.3581 48.7105 78.7609 48.8244C77.8914 48.9884 77.0164 49.0106 76.147 48.8356C75.4803 48.7022 74.8664 48.4633 74.3914 47.9466C73.9803 47.5021 73.7803 46.9687 73.7248 46.3797C73.6803 45.9269 73.7331 45.4796 73.8414 45.024H76.9525C76.9275 45.1935 76.8887 45.3518 76.8859 45.5102C76.8831 45.7519 76.8803 45.9991 76.9248 46.2353C76.972 46.4881 77.1386 46.6714 77.3859 46.7631C77.9275 46.9659 78.4525 46.8853 78.8525 46.4547C79.222 46.0575 79.4275 45.5769 79.5525 45.0657C79.747 44.2601 79.9109 43.4433 80.0803 42.6321C80.0887 42.5904 80.0553 42.5376 80.0414 42.4904C80.0609 42.5265 80.0498 42.5071 80.0414 42.4904C80.0664 42.5237 80.0553 42.5071 80.0414 42.4904H80.0387ZM81.8664 33.7756C81.8331 33.5255 81.8192 33.2727 81.7664 33.0255C81.7053 32.7477 81.547 32.5226 81.2664 32.4282C80.8275 32.2809 80.397 32.3171 80.0442 32.6338C79.8525 32.8032 79.6748 33.0199 79.572 33.2505C79.3748 33.6922 79.1998 34.1534 79.0775 34.6201C78.8525 35.4757 78.6748 36.3425 78.472 37.2037C78.2914 37.9788 78.1081 38.7511 78.0303 39.5429C77.9942 39.9123 77.9831 40.2846 78.0859 40.6458C78.2053 41.0736 78.4803 41.3153 78.8831 41.3431C79.2303 41.3681 79.5414 41.2764 79.8109 41.0402C80.0692 40.8152 80.2553 40.5346 80.372 40.2207C80.572 39.679 80.772 39.1345 80.9109 38.5761C81.1609 37.5704 81.3664 36.5536 81.5886 35.5396C81.7164 34.9562 81.8498 34.3756 81.8664 33.77V33.7756Z" fill="#060608"/>
<path d="M48.2246 7.57916H44.9357C44.9635 7.39859 44.9941 7.22635 45.0135 7.05133C45.0857 6.4596 45.1552 5.86786 45.2218 5.27613C45.233 5.18723 45.2302 5.09556 45.2218 5.00388C45.1802 4.44271 44.8718 4.07044 44.3191 3.96765C43.5802 3.82875 42.7191 4.02321 42.1941 4.78719C41.8107 5.34558 41.5691 5.96787 41.3746 6.60961C40.9052 8.14867 40.5246 9.70996 40.2691 11.2962C40.1135 12.2491 39.9913 13.2103 39.8802 14.1688C39.8413 14.5049 39.8524 14.8578 39.9024 15.1939C39.9913 15.7801 40.3385 16.0912 40.9302 16.1885C41.8941 16.344 42.5802 16.0107 43.0468 15.1467C43.3635 14.5605 43.5302 13.9243 43.6829 13.2798C43.7579 12.9659 43.8274 12.6492 43.8996 12.3352H47.2857C47.1802 12.8492 47.0941 13.3465 46.9718 13.8354C46.7968 14.5383 46.5635 15.2217 46.2413 15.8718C45.9302 16.4996 45.5413 17.0719 45.0357 17.5636C44.1996 18.3748 43.183 18.8054 42.0496 18.9777C41.2052 19.1054 40.3552 19.1054 39.5107 18.9804C38.9246 18.8943 38.3691 18.7165 37.8579 18.4081C36.9857 17.8831 36.5163 17.0969 36.3163 16.1218C36.1635 15.3661 36.2107 14.6077 36.2802 13.8521C36.458 11.9046 36.8246 9.99054 37.2996 8.09589C37.6191 6.8263 37.9774 5.56783 38.533 4.37325C38.9941 3.38148 39.6635 2.5675 40.608 2.00077C41.433 1.50349 42.3385 1.24235 43.2941 1.13678C43.9524 1.06177 44.6107 1.04511 45.2691 1.08678C45.8329 1.12289 46.3774 1.24235 46.8913 1.48404C47.8524 1.93687 48.4274 2.69529 48.6135 3.73707C48.6691 4.05377 48.683 4.38437 48.6774 4.7094C48.6607 5.68173 48.4496 6.6235 48.2274 7.57916H48.2246Z" fill="#060608"/>
<path d="M94.7494 1.22656C94.8716 1.22656 94.9522 1.22656 95.0327 1.22656C96.5522 1.22656 98.0716 1.22656 99.5911 1.22656C100.172 1.22656 100.747 1.26823 101.308 1.42936C102.694 1.82941 103.558 2.84896 103.724 4.27968C103.827 5.16033 103.763 6.0271 103.555 6.8883C103.311 7.91064 102.997 8.90797 102.461 9.81918C101.772 10.986 100.816 11.8222 99.48 12.1778C99.0161 12.3 98.5411 12.3584 98.0605 12.3695C97.4189 12.3806 96.7772 12.375 96.1355 12.375C96.0466 12.375 95.9577 12.375 95.8605 12.375C95.405 14.4919 94.955 16.5894 94.5022 18.7035H91.0244C92.2661 12.8779 93.505 7.0661 94.7466 1.22934L94.7494 1.22656ZM97.6827 3.92131C97.2689 5.81874 96.8077 7.69395 96.405 9.60805C96.8022 9.60805 97.1605 9.60249 97.5216 9.60805C98.2966 9.62472 98.9105 9.2969 99.3605 8.69128C100.172 7.60505 100.436 6.36324 100.299 5.03254C100.227 4.32691 99.855 3.97409 99.155 3.92408C98.68 3.89075 98.1994 3.91853 97.68 3.91853L97.6827 3.92131Z" fill="#050507"/>
<path d="M43.1028 28.8951C42.8195 30.2174 42.5417 31.512 42.2556 32.84C42.5917 32.8677 42.9028 32.8511 43.2167 32.8538C43.5417 32.8566 43.8667 32.8538 44.1945 32.8538H47.1028C46.8862 33.8428 46.6778 34.7957 46.4667 35.7625H41.6251C41.2834 37.3599 40.9445 38.9462 40.5973 40.5741C40.9556 40.5853 41.2945 40.5797 41.6334 40.5797C41.9778 40.5797 42.3195 40.5797 42.664 40.5797H44.7001C45.0417 40.5797 45.3834 40.5797 45.7667 40.5797C45.5584 41.5576 45.3556 42.5049 45.1528 43.4606H36.4834C37.7362 37.6377 38.9834 31.8287 40.2362 26.0059H48.6945C48.489 26.9699 48.2862 27.9172 48.0778 28.8951H43.1056H43.1028Z" fill="#050507"/>
<path d="M89.8745 30.2288C89.7578 33.3958 89.6383 36.5461 89.5217 39.6965C89.5411 39.702 89.5633 39.7076 89.5828 39.7131C89.905 38.9381 90.1856 38.1463 90.4939 37.3657C90.8106 36.5684 91.1078 35.7655 91.4161 34.9654C91.7189 34.1736 92.0217 33.3819 92.3272 32.5901C92.63 31.7984 92.9356 31.0094 93.2439 30.2065H96.68C93.7606 36.3406 90.855 42.4468 87.9467 48.5558H84.5967C84.6328 48.4697 84.6578 48.3974 84.6939 48.328C85.3828 46.9667 86.0717 45.6055 86.7661 44.247C86.8439 44.097 86.8745 43.9497 86.8717 43.7803C86.7911 40.8883 86.7161 37.9963 86.6411 35.1043C86.6022 33.5764 86.5633 32.0484 86.5245 30.5232C86.5245 30.4343 86.5245 30.3427 86.5245 30.2565C86.7133 30.1926 89.4717 30.1732 89.8772 30.2343L89.8745 30.2288Z" fill="#070709"/>
<path d="M60.766 18.7059H57.5743C57.5549 18.4531 60.1021 6.5434 60.3882 5.53217H63.5965C63.5021 5.985 63.4104 6.42116 63.3049 6.924C63.3965 6.84065 63.441 6.80454 63.4799 6.76287C63.6327 6.59896 63.7799 6.42394 63.9382 6.26559C64.666 5.53495 65.5632 5.24603 66.5771 5.30159C66.8438 5.31548 67.1188 5.35438 67.3743 5.42939C68.2688 5.69053 68.8299 6.44894 68.8688 7.37682C68.8882 7.85465 68.7799 8.31026 68.6854 8.76865C68.2077 11.0383 67.7243 13.308 67.241 15.5805C67.0216 16.614 66.8021 17.6474 66.5771 18.6975H63.2771C63.2854 18.6114 63.2854 18.5336 63.3021 18.4586C63.7743 16.2973 64.2493 14.1359 64.7188 11.9746C64.9188 11.0578 65.116 10.1382 65.2938 9.21592C65.3438 8.952 65.3493 8.67419 65.3327 8.40749C65.2993 7.91022 65.0188 7.65741 64.5243 7.64074C63.8132 7.61574 63.3577 7.87132 63.091 8.52695C62.9132 8.96589 62.7938 9.43539 62.691 9.89933C62.2604 11.8384 61.8438 13.7803 61.4215 15.7222C61.2215 16.639 61.0243 17.5557 60.8243 18.4753C60.8104 18.5447 60.7882 18.6142 60.7632 18.7031L60.766 18.7059Z" fill="#070709"/>
<path d="M120.208 18.6991C119.72 18.7491 117.197 18.7296 116.983 18.6685C117.928 14.2986 118.872 9.92311 119.822 5.53374H123.045C122.95 5.98379 122.858 6.41995 122.756 6.92C122.845 6.84499 122.889 6.81443 122.925 6.77554C123.111 6.5783 123.289 6.37272 123.483 6.18659C124.2 5.49762 125.075 5.25315 126.045 5.30315C126.295 5.31705 126.547 5.35316 126.789 5.42261C127.697 5.6782 128.261 6.4005 128.317 7.33949C128.342 7.76176 128.261 8.16736 128.175 8.57296C127.745 10.6121 127.317 12.654 126.886 14.6931C126.611 15.9905 126.336 17.2906 126.061 18.588C126.053 18.6213 126.033 18.6546 126.014 18.7019H122.72C122.778 18.4157 122.831 18.1435 122.889 17.874C123.342 15.7821 123.8 13.693 124.253 11.6039C124.425 10.8093 124.6 10.0176 124.75 9.22026C124.803 8.93967 124.8 8.64241 124.781 8.35627C124.756 7.94789 124.517 7.70064 124.117 7.65897C123.453 7.58674 122.917 7.77565 122.592 8.43406C122.395 8.82577 122.289 9.24804 122.197 9.67031C121.556 12.6151 120.92 15.5626 120.278 18.5102C120.264 18.5796 120.236 18.6435 120.217 18.7046L120.208 18.6991Z" fill="#060608"/>
<path d="M49.458 43.4638H46.208C47.1608 39.0633 48.108 34.6795 49.0552 30.2956H52.2802C52.1858 30.7512 52.0941 31.1874 52.0025 31.6208C52.0191 31.6291 52.0358 31.6374 52.0525 31.6486C52.1108 31.5847 52.1691 31.5263 52.2247 31.4597C52.6136 30.9985 53.0497 30.5984 53.6108 30.354C54.3747 30.0206 55.1691 29.9484 55.9719 30.1706C57.0552 30.4707 57.6302 31.3263 57.5441 32.4625C57.5052 32.9543 57.3886 33.4432 57.2858 33.9294C56.6913 36.7464 56.0913 39.5633 55.4941 42.3803C55.4163 42.7415 55.3358 43.1026 55.258 43.4638H51.9413C52.0525 42.9526 52.158 42.4609 52.2663 41.9664C52.7025 39.9634 53.1413 37.9632 53.5691 35.9602C53.7275 35.2184 53.8802 34.4767 54.0108 33.7294C54.0497 33.5127 54.033 33.2765 53.9969 33.0571C53.9302 32.6542 53.683 32.4459 53.2747 32.407C52.6108 32.3431 52.0886 32.632 51.7941 33.2348C51.5886 33.6516 51.4969 34.1044 51.3997 34.5517C50.9747 36.4908 50.5525 38.4327 50.1302 40.3745C49.9191 41.3441 49.7136 42.3164 49.5025 43.286C49.4913 43.3388 49.4775 43.3888 49.4608 43.4638H49.458Z" fill="#070608"/>
<path d="M57.6715 12.6871H51.4132C51.3326 13.0511 51.2493 13.4094 51.1743 13.7678C51.0687 14.254 50.9854 14.7457 51.0299 15.2458C51.0493 15.4597 51.0826 15.6791 51.1521 15.8819C51.3743 16.5181 51.8132 16.732 52.5076 16.5653C52.8771 16.4792 53.1438 16.2375 53.3632 15.9375C53.6382 15.5597 53.7938 15.1263 53.9188 14.6818C53.9549 14.5512 53.9882 14.4207 54.0243 14.2762H57.2743C57.2743 14.3151 57.2854 14.3429 57.2799 14.3651C57.0049 15.343 56.6493 16.2875 56.0271 17.1071C55.2687 18.11 54.2493 18.6739 53.0215 18.8767C52.2576 19.0017 51.4937 19.0323 50.7243 18.9295C50.1243 18.8489 49.566 18.6517 49.066 18.3044C48.3382 17.796 47.9715 17.071 47.8299 16.2181C47.7326 15.6347 47.7688 15.0457 47.8076 14.4596C47.8715 13.4817 48.1104 12.5343 48.3132 11.5815C48.4993 10.7147 48.7382 9.8646 49.0632 9.03951C49.416 8.14774 49.8826 7.32821 50.5882 6.66425C51.2771 6.01417 52.0993 5.61969 53.0215 5.43355C53.7521 5.28631 54.4938 5.26131 55.2354 5.32799C55.8882 5.38633 56.516 5.55301 57.0632 5.94194C57.7965 6.46145 58.1576 7.19486 58.2854 8.0644C58.4132 8.91727 58.316 9.76181 58.1604 10.598C58.0354 11.2731 57.8743 11.9398 57.7271 12.6094C57.7243 12.626 57.7076 12.6399 57.6743 12.6871H57.6715ZM51.8465 10.6258H54.941C55.0243 10.0813 55.1187 9.5479 55.1799 9.01173C55.2049 8.80059 55.1771 8.57557 55.1299 8.36721C55.0354 7.93105 54.766 7.65047 54.3132 7.57268C53.7215 7.47267 53.2132 7.63935 52.8271 8.09218C52.6437 8.30887 52.4937 8.56446 52.3715 8.82282C52.1021 9.38955 51.9826 10.0035 51.8465 10.623V10.6258Z" fill="#070709"/>
<path d="M67.4472 37.4403H61.1417C60.9639 38.3182 60.7 39.1682 60.775 40.0656C60.7972 40.3128 60.8584 40.5656 60.9528 40.7962C61.1084 41.174 61.4167 41.3629 61.8278 41.3657C62.4389 41.3685 62.8722 41.0657 63.1834 40.5656C63.4334 40.1628 63.5861 39.7183 63.7 39.2599C63.7195 39.1821 63.7417 39.1071 63.7639 39.0238H67.025C67.0056 39.1071 66.9945 39.1766 66.975 39.2405C66.7972 39.8767 66.5667 40.4934 66.2556 41.0768C65.4806 42.5297 64.3 43.4048 62.6528 43.6354C61.8334 43.7493 61.0167 43.791 60.2 43.6271C59.5417 43.4965 58.9445 43.2465 58.4528 42.7686C57.9584 42.288 57.6945 41.6991 57.575 41.0351C57.4667 40.4239 57.4834 39.8072 57.5445 39.196C57.7111 37.5181 58.0917 35.8845 58.6139 34.2844C58.8556 33.5426 59.1889 32.8453 59.6389 32.2036C60.4334 31.0673 61.5306 30.4117 62.875 30.1645C63.8167 29.9894 64.7639 29.9644 65.7 30.2089C67.0334 30.5562 67.8111 31.4396 68.0084 32.8064C68.1056 33.4759 68.0611 34.1427 67.9778 34.8066C67.9361 35.1456 67.875 35.4845 67.8056 35.8207C67.6945 36.3513 67.5695 36.8791 67.4445 37.4375L67.4472 37.4403ZM64.6472 35.39C64.6945 35.1706 64.7445 34.9678 64.7834 34.765C64.8722 34.3121 64.9417 33.8593 64.9167 33.3954C64.8806 32.7064 64.4278 32.2786 63.7389 32.2897C63.3334 32.2953 62.9667 32.4286 62.6917 32.7231C62.4972 32.9314 62.3222 33.1676 62.1861 33.4176C61.8556 34.026 61.7361 34.7011 61.5917 35.3873H64.6472V35.39Z" fill="#070608"/>
<path d="M84.2111 12.6874H77.9305C77.8666 12.9736 77.8055 13.2458 77.7444 13.5181C77.6166 14.1015 77.5055 14.6877 77.5555 15.2877C77.5722 15.5016 77.6055 15.7211 77.6805 15.9211C77.9194 16.549 78.3611 16.7212 79.0083 16.5712C79.5333 16.449 79.8611 16.0628 80.0805 15.6044C80.2527 15.2488 80.3527 14.8627 80.4861 14.4876C80.5111 14.421 80.525 14.3487 80.5472 14.2682H83.7777C83.7861 14.2987 83.8028 14.3237 83.7972 14.3459C83.5028 15.4655 83.0722 16.5184 82.2972 17.4046C81.5805 18.2214 80.6666 18.677 79.6139 18.8659C78.8277 19.0076 78.0333 19.0437 77.2389 18.927C76.2416 18.7798 75.3916 18.377 74.8194 17.5019C74.4666 16.9629 74.3305 16.3601 74.3027 15.7294C74.2555 14.621 74.4028 13.532 74.6389 12.4513C74.8778 11.3678 75.1139 10.2816 75.5055 9.23983C75.8472 8.32861 76.2944 7.47574 76.9916 6.77566C77.7083 6.05614 78.575 5.62276 79.5666 5.42829C80.2889 5.28661 81.0222 5.25883 81.7527 5.3255C82.5389 5.39773 83.275 5.62276 83.875 6.17282C84.3972 6.65343 84.6666 7.25905 84.7805 7.94524C84.9 8.66476 84.8722 9.38984 84.7527 10.1038C84.6166 10.9317 84.4277 11.7484 84.2639 12.5708C84.2583 12.5958 84.2416 12.618 84.2111 12.6819V12.6874ZM81.4305 10.6316C81.5611 9.99269 81.7277 9.37317 81.7027 8.72588C81.6944 8.54808 81.65 8.36751 81.5944 8.19804C81.4777 7.85356 81.2278 7.64798 80.8722 7.57853C80.3944 7.4813 79.9583 7.58131 79.5694 7.87579C79.2805 8.09525 79.0972 8.39529 78.9389 8.71199C78.6389 9.31483 78.5111 9.96768 78.375 10.6316H81.4333H81.4305Z" fill="#060608"/>
<path d="M108.972 5.27344C109.563 5.29566 110.147 5.34011 110.719 5.49013C111.975 5.81794 112.747 6.76805 112.875 8.10709C112.95 8.89051 112.858 9.66004 112.738 10.4296C112.552 11.6353 112.302 12.8271 111.95 13.9939C111.663 14.9384 111.327 15.8579 110.791 16.6969C109.919 18.0582 108.663 18.7638 107.077 18.9333C106.38 19.0083 105.686 19.0166 105 18.8749C104.719 18.8166 104.436 18.7416 104.169 18.6305C103.13 18.1999 102.588 17.3915 102.427 16.2969C102.322 15.569 102.422 14.8523 102.508 14.1355C102.713 12.3965 103.119 10.7074 103.772 9.07942C104.055 8.37378 104.38 7.69037 104.847 7.08197C105.611 6.08186 106.622 5.51513 107.869 5.37067C108.236 5.329 108.605 5.304 108.975 5.27344H108.972ZM105.566 14.8467C105.586 15.1245 105.588 15.4051 105.627 15.6829C105.711 16.2691 106.091 16.5941 106.683 16.6025C107.252 16.6108 107.658 16.3219 107.969 15.8774C108.216 15.5246 108.377 15.1329 108.5 14.7273C108.975 13.1604 109.358 11.5741 109.663 9.9684C109.747 9.52391 109.786 9.07386 109.736 8.61825C109.677 8.09042 109.402 7.72371 108.966 7.65704C108.3 7.55702 107.733 7.73482 107.33 8.31544C107.08 8.67659 106.919 9.07942 106.8 9.49613C106.561 10.3379 106.333 11.1824 106.102 12.0297C105.852 12.9548 105.63 13.8855 105.563 14.8523L105.566 14.8467Z" fill="#060608"/>
<path d="M29.1445 22.4665C29.2529 22.4665 29.3612 22.4665 29.4695 22.4665C52.9418 22.4665 76.4112 22.4665 99.8834 22.4665H100.283C100.22 22.711 100.064 22.8804 99.9751 23.0832C99.8862 23.286 99.7473 23.3388 99.5306 23.3388C76.1501 23.3333 52.7695 23.3333 29.389 23.3333C29.3084 23.3333 29.2251 23.3305 29.1445 23.3277L29.1473 23.3333C29.1473 23.0416 29.1473 22.7526 29.1473 22.4609L29.1445 22.4637V22.4665Z" fill="#279AD6"/>
<path d="M75.0195 1.84735C74.7556 3.06693 74.4973 4.26429 74.2334 5.48942H75.8862C75.7528 6.27285 75.5723 7.01182 75.4112 7.77301H73.7445C73.6806 8.04804 73.6167 8.3064 73.5584 8.56754C73.0667 10.8539 72.5723 13.1375 72.0834 15.4239C72.0528 15.5739 72.0389 15.7295 72.0389 15.8795C72.0389 16.1462 72.1917 16.3184 72.4389 16.4017C72.7528 16.5101 73.0778 16.5018 73.4028 16.4629C73.4723 16.4545 73.5417 16.4406 73.6501 16.424C73.5917 16.7185 73.5389 16.9851 73.4834 17.2546C73.3917 17.688 73.2973 18.1186 73.2084 18.552C73.1889 18.6548 73.15 18.7159 73.0389 18.727C72.1667 18.8215 71.2945 18.9215 70.4195 18.752C70.1056 18.6909 69.8167 18.5714 69.5445 18.3964C69.0278 18.0658 68.775 17.5741 68.6695 16.9907C68.5889 16.549 68.6112 16.1073 68.7056 15.6711C69.0528 14.0654 69.4084 12.4624 69.7612 10.8567C70.1528 9.0676 70.5417 7.27573 70.9334 5.48665C71.0667 4.86991 71.2028 4.2504 71.3334 3.63366C71.3584 3.52254 71.3917 3.4392 71.5112 3.38919C72.6334 2.89191 73.7528 2.38908 74.875 1.88902C74.9084 1.87513 74.9417 1.8668 75.0167 1.8418L75.0195 1.84735Z" fill="#070709"/>
<path d="M133.027 7.77084C132.944 8.1431 132.864 8.48481 132.791 8.82929C132.314 11.0351 131.833 13.2409 131.358 15.4467C131.33 15.5689 131.322 15.6967 131.322 15.8245C131.322 16.1551 131.469 16.344 131.791 16.4329C132.091 16.5135 132.4 16.5135 132.705 16.4663C132.775 16.4551 132.844 16.4496 132.939 16.4385C132.911 16.5774 132.891 16.6885 132.866 16.7996C132.741 17.3747 132.608 17.9442 132.494 18.522C132.464 18.6776 132.397 18.7332 132.25 18.7471C131.53 18.8193 130.811 18.8915 130.086 18.8221C129.611 18.7776 129.166 18.6415 128.769 18.3692C128.316 18.0581 128.083 17.6164 127.975 17.0913C127.858 16.5301 127.922 15.9773 128.044 15.4245C128.477 13.4326 128.914 11.4407 129.35 9.4488C129.775 7.5097 130.205 5.5706 130.627 3.63149C130.652 3.51203 130.7 3.44258 130.811 3.39258C131.925 2.89808 133.036 2.39802 134.15 1.90352C134.183 1.88963 134.216 1.8813 134.297 1.85352C134.036 3.0731 133.78 4.26767 133.519 5.49281H135.164C135.027 6.27623 134.85 7.0152 134.697 7.7764H133.03L133.027 7.77084Z" fill="#070708"/>
<path d="M86.8695 5.53201H89.925C89.8 6.11819 89.6778 6.6877 89.5556 7.25443C89.5722 7.26276 89.5889 7.27388 89.6084 7.28221C89.65 7.22387 89.7 7.16831 89.7361 7.10441C89.9361 6.77104 90.1584 6.45712 90.4472 6.18764C91.0028 5.6737 91.6722 5.44034 92.4111 5.37922C92.5889 5.36533 92.7695 5.37922 92.9806 5.37922C92.7528 6.43489 92.525 7.47945 92.2945 8.54068C92.1889 8.54068 92.0917 8.54068 91.9972 8.54068C91.4611 8.52679 90.9334 8.57958 90.4361 8.79905C89.9056 9.03518 89.5556 9.44634 89.3 9.95195C89.0861 10.377 89.0028 10.8382 88.9056 11.2993C88.5889 12.7995 88.2722 14.2997 87.9556 15.7998C87.7667 16.6916 87.5778 17.5834 87.3861 18.4751C87.3695 18.5529 87.3445 18.6307 87.3195 18.7196H84.0361C84.9834 14.3191 85.925 9.94084 86.8722 5.53479L86.8695 5.53201Z" fill="#060608"/>
<path d="M70.7189 43.4536H67.4355C68.3828 39.0531 69.3244 34.672 70.2717 30.2771H73.33C73.205 30.8549 73.0855 31.4133 72.9633 31.9717C72.98 31.9801 72.9994 31.9856 73.0161 31.994C73.0522 31.9495 73.0939 31.9078 73.1272 31.8606C73.2439 31.6911 73.355 31.5133 73.4772 31.3467C73.9772 30.6549 74.6772 30.2965 75.5022 30.1549C75.7161 30.1187 75.9328 30.1076 76.1494 30.091C76.2161 30.0854 76.2855 30.1021 76.3828 30.1076C76.155 31.1689 75.9328 32.2079 75.705 33.2746C75.5939 33.2746 75.4883 33.2691 75.3828 33.2746C75.0494 33.2997 74.7105 33.2941 74.3855 33.3635C73.3911 33.5691 72.7911 34.2192 72.5244 35.1693C72.3383 35.8277 72.2133 36.5056 72.0717 37.1751C71.6355 39.2225 71.205 41.2728 70.7689 43.323C70.7605 43.3674 70.7383 43.4063 70.7217 43.4563L70.7189 43.4536Z" fill="#070608"/>
<path d="M115.519 18.7304H112.267C112.714 16.5135 113.211 14.316 113.678 12.113C114.144 9.90717 114.63 7.70415 115.105 5.50391H118.364C117.414 9.92106 116.467 14.3216 115.519 18.7304Z" fill="#070608"/>
<path d="M118.667 4.15904H115.378C115.589 3.18949 115.797 2.23939 116.006 1.27539H119.289C119.078 2.24494 118.872 3.2006 118.664 4.15904H118.667Z" fill="#0D0C0E"/>
<path d="M134.211 16.7439C134.211 15.5937 135.116 14.6853 136.275 14.6797C137.441 14.6714 138.358 15.5882 138.355 16.7522C138.35 17.9023 137.436 18.8219 136.294 18.8246C135.136 18.8246 134.211 17.9023 134.211 16.7439ZM134.597 16.7439C134.605 17.6523 135.289 18.4357 136.278 18.4413C137.253 18.4468 137.955 17.6912 137.972 16.7605C137.989 15.8327 137.222 15.0631 136.291 15.0603C135.361 15.0548 134.597 15.816 134.594 16.7466L134.597 16.7439Z" fill="#363031"/>
<path d="M135.85 16.921V17.9266H135.48V15.518C135.547 15.5125 135.625 15.5014 135.703 15.4986C135.928 15.4986 136.155 15.4902 136.38 15.5041C136.522 15.5125 136.669 15.543 136.8 15.593C137.033 15.6791 137.155 15.8625 137.172 16.1125C137.189 16.3598 137.094 16.5515 136.867 16.6709C136.828 16.6904 136.789 16.7154 136.736 16.7459C136.967 16.8154 137.053 16.9821 137.083 17.196C137.119 17.4349 137.167 17.671 137.211 17.9294H136.725C136.686 17.7127 136.65 17.5016 136.614 17.2904C136.561 16.9765 136.486 16.9098 136.172 16.896C136.1 16.8932 136.028 16.896 135.955 16.896C135.93 16.896 135.905 16.9098 135.847 16.9237L135.85 16.921ZM135.867 16.4876C136.083 16.4876 136.289 16.5265 136.486 16.4459C136.639 16.3848 136.697 16.2653 136.669 16.0959C136.647 15.9542 136.547 15.9014 136.419 15.8986C136.236 15.8931 136.05 15.8986 135.867 15.8986V16.4876Z" fill="#312D2E"/>
</svg>
