<?xml version="1.0" encoding="UTF-8"?>
<svg id="Capa_2" data-name="Capa 2" xmlns="http://www.w3.org/2000/svg" viewBox="0 0 576 179.98">
  <defs>
    <style>
      .cls-1 {
        fill: #0d0c0e;
      }

      .cls-2 {
        fill: #050507;
      }

      .cls-3 {
        fill: #1298d4;
      }

      .cls-4 {
        fill: #279ad6;
      }

      .cls-5 {
        fill: #060608;
      }

      .cls-6 {
        fill: #363031;
      }

      .cls-7 {
        fill: #312d2e;
      }

      .cls-8 {
        fill: #070608;
      }

      .cls-9 {
        fill: #070709;
      }

      .cls-10 {
        fill: #070708;
      }
    </style>
  </defs>
  <g id="Capa_1-2" data-name="Capa 1">
    <g>
      <path class="cls-3" d="M104.92,83.98c-.29,7.45-2.04,14.54-5.44,21.18-4.68,9.14-11.51,16.24-20.47,21.28-4.49,2.53-9.26,4.3-14.3,5.32-5.26,1.07-10.57,1.35-15.92,.72-5.41-.64-10.59-2.04-15.53-4.35-4.84-2.26-9.22-5.2-13.15-8.84-3.29-3.05-6.12-6.48-8.49-10.28-3.37-5.41-5.64-11.26-6.8-17.54-.78-4.22-.96-8.47-.69-12.73,.32-5.13,1.47-10.09,3.37-14.87,2.15-5.4,5.12-10.29,8.95-14.67,5.28-6.04,11.63-10.56,19.06-13.58,4.37-1.78,8.89-2.9,13.58-3.42,5.72-.63,11.36-.22,16.96,1.08,6.63,1.53,12.68,4.32,18.14,8.33,6.79,4.98,12.05,11.25,15.71,18.85,2.44,5.06,4,10.36,4.64,15.94,.17,1.48,.25,2.98,.37,4.47h.01c-.42,0-.85,0-1.27,0-8.85,0-17.71,0-26.56,0-7.13,0-14.26,0-21.38,0-.38,0-.75,.03-1.13,.04v3.08h1.23c7.03,0,14.06,0,21.09,0,9.34,0,18.68,0,28.02,0v-.02Z"/>
      <path class="cls-5" d="M288.14,152.95c-.82,1.38-1.98,2.41-3.42,3.05-2.94,1.31-6.01,1.58-9.15,.87-2.62-.59-4.34-2.24-5.39-4.65-.99-2.26-1.28-4.65-.99-7.07,.35-2.94,.77-5.87,1.28-8.78,.51-2.91,1.11-5.81,1.8-8.68,.75-3.12,1.5-6.26,2.9-9.18,1.24-2.59,2.69-5.06,4.83-7.04,3.4-3.14,7.4-4.1,11.86-3.12,2.67,.59,4.4,2.28,5.1,4.96,.06,.24,.17,.47,.36,.71,.71-1.68,.74-3.5,1.25-5.26h11.1c-.02,.27-.02,.52-.07,.76-1.02,4.7-2.04,9.4-3.07,14.1-1.58,7.24-3.17,14.48-4.76,21.71-1.2,5.49-2.34,11-3.63,16.47-1.19,5.06-3.91,9.1-8.48,11.77-1.9,1.11-3.97,1.77-6.12,2.18-3.13,.59-6.28,.67-9.41,.04-2.4-.48-4.61-1.34-6.32-3.2-1.48-1.6-2.2-3.52-2.4-5.64-.16-1.63,.03-3.24,.42-4.88h11.2c-.09,.61-.23,1.18-.24,1.75-.01,.87-.02,1.76,.14,2.61,.17,.91,.77,1.57,1.66,1.9,1.95,.73,3.84,.44,5.28-1.11,1.33-1.43,2.07-3.16,2.52-5,.7-2.9,1.29-5.84,1.9-8.76,.03-.15-.09-.34-.14-.51,.03,.06,.07,.13,0,0,.09,.12,.05,.06,0,0Zm6.58-31.37c-.12-.9-.17-1.81-.36-2.7-.22-1-.79-1.81-1.8-2.15-1.58-.53-3.13-.4-4.4,.74-.69,.61-1.33,1.39-1.7,2.22-.71,1.59-1.34,3.25-1.78,4.93-.81,3.08-1.45,6.2-2.18,9.3-.65,2.79-1.31,5.57-1.59,8.42-.13,1.33-.17,2.67,.2,3.97,.43,1.54,1.42,2.41,2.87,2.51,1.25,.09,2.37-.24,3.34-1.09,.93-.81,1.6-1.82,2.02-2.95,.72-1.95,1.44-3.91,1.94-5.92,.9-3.62,1.64-7.28,2.44-10.93,.46-2.1,.94-4.19,1-6.37Z"/>
      <path class="cls-5" d="M173.61,27.28h-11.84c.1-.65,.21-1.27,.28-1.9,.26-2.13,.51-4.26,.75-6.39,.04-.32,.03-.65,0-.98-.15-2.02-1.26-3.36-3.25-3.73-2.66-.5-5.76,.2-7.65,2.95-1.38,2.01-2.25,4.25-2.95,6.56-1.69,5.54-3.06,11.16-3.98,16.87-.56,3.43-1,6.89-1.4,10.34-.14,1.21-.1,2.48,.08,3.69,.32,2.11,1.57,3.23,3.7,3.58,3.47,.56,5.94-.64,7.62-3.75,1.14-2.11,1.74-4.4,2.29-6.72,.27-1.13,.52-2.27,.78-3.4h12.19c-.38,1.85-.69,3.64-1.13,5.4-.63,2.53-1.47,4.99-2.63,7.33-1.12,2.26-2.52,4.32-4.34,6.09-3.01,2.92-6.67,4.47-10.75,5.09-3.04,.46-6.1,.46-9.14,.01-2.11-.31-4.11-.95-5.95-2.06-3.14-1.89-4.83-4.72-5.55-8.23-.55-2.72-.38-5.45-.13-8.17,.64-7.01,1.96-13.9,3.67-20.72,1.15-4.57,2.44-9.1,4.44-13.4,1.66-3.57,4.07-6.5,7.47-8.54,2.97-1.79,6.23-2.73,9.67-3.11,2.37-.27,4.74-.33,7.11-.18,2.03,.13,3.99,.56,5.84,1.43,3.46,1.63,5.53,4.36,6.2,8.11,.2,1.14,.25,2.33,.23,3.5-.06,3.5-.82,6.89-1.62,10.33Z"/>
      <path class="cls-2" d="M341.1,4.41c.44,0,.73,0,1.02,0,5.47,0,10.94,0,16.41,0,2.09,0,4.16,.15,6.18,.73,4.99,1.44,8.1,5.11,8.7,10.26,.37,3.17,.14,6.29-.61,9.39-.88,3.68-2.01,7.27-3.94,10.55-2.48,4.2-5.92,7.21-10.73,8.49-1.67,.44-3.38,.65-5.11,.69-2.31,.04-4.62,.02-6.93,.02-.32,0-.64,0-.99,0-1.64,7.62-3.26,15.17-4.89,22.78h-12.52c4.47-20.97,8.93-41.89,13.4-62.9Zm10.56,9.7c-1.49,6.83-3.15,13.58-4.6,20.47,1.43,0,2.72-.02,4.02,0,2.79,.06,5-1.12,6.62-3.3,2.92-3.91,3.87-8.38,3.38-13.17-.26-2.54-1.6-3.81-4.12-3.99-1.71-.12-3.44-.02-5.31-.02Z"/>
      <path class="cls-2" d="M155.17,104.01c-1.02,4.76-2.02,9.42-3.05,14.2,1.21,.1,2.33,.04,3.46,.05,1.17,.01,2.34,0,3.52,0h10.47c-.78,3.56-1.53,6.99-2.29,10.47h-17.43c-1.23,5.75-2.45,11.46-3.7,17.32,1.29,.04,2.51,.02,3.73,.02,1.24,0,2.47,0,3.71,0h7.33c1.23,0,2.46,0,3.84,0-.75,3.52-1.48,6.93-2.21,10.37h-31.21c4.51-20.96,9-41.87,13.51-62.83h30.45c-.74,3.47-1.47,6.88-2.22,10.4h-17.9Z"/>
      <path class="cls-9" d="M323.55,108.81c-.42,11.4-.85,22.74-1.27,34.08,.07,.02,.15,.04,.22,.06,1.16-2.79,2.17-5.64,3.28-8.45,1.14-2.87,2.21-5.76,3.32-8.64,1.09-2.85,2.18-5.7,3.28-8.55,1.09-2.85,2.19-5.69,3.3-8.58h12.37c-10.51,22.08-20.97,44.06-31.44,66.05h-12.06c.13-.31,.22-.57,.35-.82,2.48-4.9,4.96-9.8,7.46-14.69,.28-.54,.39-1.07,.38-1.68-.29-10.41-.56-20.82-.83-31.23-.14-5.5-.28-11-.42-16.49,0-.32,0-.65,0-.96,.68-.23,10.61-.3,12.07-.08Z"/>
      <path class="cls-9" d="M218.76,67.33h-11.49c-.07-.91,9.1-43.78,10.13-47.42h11.55c-.34,1.63-.67,3.2-1.05,5.01,.33-.3,.49-.43,.63-.58,.55-.59,1.08-1.22,1.65-1.79,2.62-2.63,5.85-3.67,9.5-3.47,.96,.05,1.95,.19,2.87,.46,3.22,.94,5.24,3.67,5.38,7.01,.07,1.72-.32,3.36-.66,5.01-1.72,8.17-3.46,16.34-5.2,24.52-.79,3.72-1.58,7.44-2.39,11.22h-11.88c.03-.31,.03-.59,.09-.86,1.7-7.78,3.41-15.56,5.1-23.34,.72-3.3,1.43-6.61,2.07-9.93,.18-.95,.2-1.95,.14-2.91-.12-1.79-1.13-2.7-2.91-2.76-2.56-.09-4.2,.83-5.16,3.19-.64,1.58-1.07,3.27-1.44,4.94-1.55,6.98-3.05,13.97-4.57,20.96-.72,3.3-1.43,6.6-2.15,9.91-.05,.25-.13,.5-.22,.82Z"/>
      <path class="cls-5" d="M432.75,67.31c-1.76,.18-10.84,.11-11.61-.11,3.4-15.73,6.8-31.48,10.22-47.28h11.6c-.34,1.62-.67,3.19-1.04,4.99,.32-.27,.48-.38,.61-.52,.67-.71,1.31-1.45,2.01-2.12,2.58-2.48,5.73-3.36,9.22-3.18,.9,.05,1.81,.18,2.68,.43,3.27,.92,5.3,3.52,5.5,6.9,.09,1.52-.2,2.98-.51,4.44-1.55,7.34-3.09,14.69-4.64,22.03-.99,4.67-1.98,9.35-2.97,14.02-.03,.12-.1,.24-.17,.41h-11.86c.21-1.03,.4-2.01,.61-2.98,1.63-7.53,3.28-15.05,4.91-22.57,.62-2.86,1.25-5.71,1.79-8.58,.19-1.01,.18-2.08,.11-3.11-.09-1.47-.95-2.36-2.39-2.51-2.39-.26-4.32,.42-5.49,2.79-.71,1.41-1.09,2.93-1.42,4.45-2.31,10.6-4.6,21.21-6.91,31.82-.05,.25-.15,.48-.22,.7Z"/>
      <path class="cls-8" d="M178.05,156.45h-11.7c3.43-15.84,6.84-31.62,10.25-47.4h11.61c-.34,1.64-.67,3.21-1,4.77,.06,.03,.12,.06,.18,.1,.21-.23,.42-.44,.62-.68,1.4-1.66,2.97-3.1,4.99-3.98,2.75-1.2,5.61-1.46,8.5-.66,3.9,1.08,5.97,4.16,5.66,8.25-.14,1.77-.56,3.53-.93,5.28-2.14,10.14-4.3,20.28-6.45,30.42-.28,1.3-.57,2.6-.85,3.9h-11.94c.4-1.84,.78-3.61,1.17-5.39,1.57-7.21,3.15-14.41,4.69-21.62,.57-2.67,1.12-5.34,1.59-8.03,.14-.78,.08-1.63-.05-2.42-.24-1.45-1.13-2.2-2.6-2.34-2.39-.23-4.27,.81-5.33,2.98-.74,1.5-1.07,3.13-1.42,4.74-1.53,6.98-3.05,13.97-4.57,20.96-.76,3.49-1.5,6.99-2.26,10.48-.04,.19-.09,.37-.15,.64Z"/>
      <path class="cls-9" d="M207.62,45.67h-22.53c-.29,1.31-.59,2.6-.86,3.89-.38,1.75-.68,3.52-.52,5.32,.07,.77,.19,1.56,.44,2.29,.8,2.29,2.38,3.06,4.88,2.46,1.33-.31,2.29-1.18,3.08-2.26,.99-1.36,1.55-2.92,2-4.52,.13-.47,.25-.94,.38-1.46h11.7c0,.14,.04,.24,.02,.32-.99,3.52-2.27,6.92-4.51,9.87-2.73,3.61-6.4,5.64-10.82,6.37-2.75,.45-5.5,.56-8.27,.19-2.16-.29-4.17-1-5.97-2.25-2.62-1.83-3.94-4.44-4.45-7.51-.35-2.1-.22-4.22-.08-6.33,.23-3.52,1.09-6.93,1.82-10.36,.67-3.12,1.53-6.18,2.7-9.15,1.27-3.21,2.95-6.16,5.49-8.55,2.48-2.34,5.44-3.76,8.76-4.43,2.63-.53,5.3-.62,7.97-.38,2.35,.21,4.61,.81,6.58,2.21,2.64,1.87,3.94,4.51,4.4,7.64,.46,3.07,.11,6.11-.45,9.12-.45,2.43-1.03,4.83-1.56,7.24-.01,.06-.07,.11-.19,.28Zm-20.97-7.42h11.14c.3-1.96,.64-3.88,.86-5.81,.09-.76-.01-1.57-.18-2.32-.34-1.57-1.31-2.58-2.94-2.86-2.13-.36-3.96,.24-5.35,1.87-.66,.78-1.2,1.7-1.64,2.63-.97,2.04-1.4,4.25-1.89,6.48Z"/>
      <path class="cls-8" d="M242.81,134.77h-22.7c-.64,3.16-1.59,6.22-1.32,9.45,.08,.89,.3,1.8,.64,2.63,.56,1.36,1.67,2.04,3.15,2.05,2.2,.01,3.76-1.08,4.88-2.88,.9-1.45,1.45-3.05,1.86-4.7,.07-.28,.15-.55,.23-.85h11.74c-.07,.3-.11,.55-.18,.78-.64,2.29-1.47,4.51-2.59,6.61-2.79,5.23-7.04,8.38-12.97,9.21-2.95,.41-5.89,.56-8.83-.03-2.37-.47-4.52-1.37-6.29-3.09-1.78-1.73-2.73-3.85-3.16-6.24-.39-2.2-.33-4.42-.11-6.62,.6-6.04,1.97-11.92,3.85-17.68,.87-2.67,2.07-5.18,3.69-7.49,2.86-4.09,6.81-6.45,11.65-7.34,3.39-.63,6.8-.72,10.17,.16,4.8,1.25,7.6,4.43,8.31,9.35,.35,2.41,.19,4.81-.11,7.2-.15,1.22-.37,2.44-.62,3.65-.4,1.91-.85,3.81-1.3,5.82Zm-10.08-7.38c.17-.79,.35-1.52,.49-2.25,.32-1.63,.57-3.26,.48-4.93-.13-2.48-1.76-4.02-4.24-3.98-1.46,.02-2.78,.5-3.77,1.56-.7,.75-1.33,1.6-1.82,2.5-1.19,2.19-1.62,4.62-2.14,7.09h11Z"/>
      <path class="cls-5" d="M303.16,45.67h-22.61c-.23,1.03-.45,2.01-.67,2.99-.46,2.1-.86,4.21-.68,6.37,.06,.77,.18,1.56,.45,2.28,.86,2.26,2.45,2.88,4.78,2.34,1.89-.44,3.07-1.83,3.86-3.48,.62-1.28,.98-2.67,1.46-4.02,.09-.24,.14-.5,.22-.79h11.63c.03,.11,.09,.2,.07,.28-1.06,4.03-2.61,7.82-5.4,11.01-2.58,2.94-5.87,4.58-9.66,5.26-2.83,.51-5.69,.64-8.55,.22-3.59-.53-6.65-1.98-8.71-5.13-1.27-1.94-1.76-4.11-1.86-6.38-.17-3.99,.36-7.91,1.21-11.8,.86-3.9,1.71-7.81,3.12-11.56,1.23-3.28,2.84-6.35,5.35-8.87,2.58-2.59,5.7-4.15,9.27-4.85,2.6-.51,5.24-.61,7.87-.37,2.83,.26,5.48,1.07,7.64,3.05,1.88,1.73,2.85,3.91,3.26,6.38,.43,2.59,.33,5.2-.1,7.77-.49,2.98-1.17,5.92-1.76,8.88-.02,.09-.08,.17-.19,.4Zm-10.01-7.4c.47-2.3,1.07-4.53,.98-6.86-.03-.64-.19-1.29-.39-1.9-.42-1.24-1.32-1.98-2.6-2.23-1.72-.35-3.29,.01-4.69,1.07-1.04,.79-1.7,1.87-2.27,3.01-1.08,2.17-1.54,4.52-2.03,6.91h11.01Z"/>
      <path class="cls-5" d="M392.3,18.98c2.13,.08,4.23,.24,6.29,.78,4.52,1.18,7.3,4.6,7.76,9.42,.27,2.82-.06,5.59-.49,8.36-.67,4.34-1.57,8.63-2.84,12.83-1.03,3.4-2.24,6.71-4.17,9.73-3.14,4.9-7.66,7.44-13.37,8.05-2.51,.27-5.01,.3-7.48-.21-1.01-.21-2.03-.48-2.99-.88-3.74-1.55-5.69-4.46-6.27-8.4-.38-2.62-.02-5.2,.29-7.78,.74-6.26,2.2-12.34,4.55-18.2,1.02-2.54,2.19-5,3.87-7.19,2.75-3.6,6.39-5.64,10.88-6.16,1.32-.15,2.65-.24,3.98-.35Zm-12.26,34.46c.07,1,.08,2.01,.22,3.01,.3,2.11,1.67,3.28,3.8,3.31,2.05,.03,3.51-1.01,4.63-2.61,.89-1.27,1.47-2.68,1.91-4.14,1.71-5.64,3.09-11.35,4.19-17.13,.3-1.6,.44-3.22,.26-4.86-.21-1.9-1.2-3.22-2.77-3.46-2.4-.36-4.44,.28-5.89,2.37-.9,1.3-1.48,2.75-1.91,4.25-.86,3.03-1.68,6.07-2.51,9.12-.9,3.33-1.7,6.68-1.94,10.16Z"/>
      <path class="cls-4" d="M104.92,80.87c.39,0,.78,0,1.17,0,84.5,0,168.99,0,253.49,0h1.44c-.23,.88-.79,1.49-1.11,2.22-.32,.73-.82,.92-1.6,.92-84.17-.02-168.34-.02-252.51-.02-.29,0-.59-.01-.88-.02,0,0,.01,.02,.01,.02,0-1.05,0-2.09,0-3.14,0,0-.01,.01-.01,.01Z"/>
      <path class="cls-9" d="M270.07,6.65c-.95,4.39-1.88,8.7-2.83,13.11h5.95c-.48,2.82-1.13,5.48-1.71,8.22h-6c-.23,.99-.46,1.92-.67,2.86-1.77,8.23-3.55,16.45-5.31,24.68-.11,.54-.16,1.1-.16,1.64,0,.96,.55,1.58,1.44,1.88,1.13,.39,2.3,.36,3.47,.22,.25-.03,.5-.08,.89-.14-.21,1.06-.4,2.02-.6,2.99-.33,1.56-.67,3.11-.99,4.67-.07,.37-.21,.59-.61,.63-3.14,.34-6.28,.7-9.43,.09-1.13-.22-2.17-.65-3.15-1.28-1.86-1.19-2.77-2.96-3.15-5.06-.29-1.59-.21-3.18,.13-4.75,1.25-5.78,2.53-11.55,3.8-17.33,1.41-6.44,2.81-12.89,4.22-19.33,.48-2.22,.97-4.45,1.44-6.67,.09-.4,.21-.7,.64-.88,4.04-1.79,8.07-3.6,12.11-5.4,.12-.05,.24-.08,.51-.17Z"/>
      <path class="cls-10" d="M478.9,27.97c-.3,1.34-.59,2.57-.85,3.81-1.72,7.94-3.45,15.88-5.16,23.82-.1,.44-.13,.9-.13,1.36,0,1.19,.53,1.87,1.69,2.19,1.08,.29,2.19,.29,3.29,.12,.25-.04,.5-.06,.84-.1-.1,.5-.17,.9-.26,1.3-.45,2.07-.93,4.12-1.34,6.2-.11,.56-.35,.76-.88,.81-2.59,.26-5.18,.52-7.79,.27-1.71-.16-3.31-.65-4.74-1.63-1.63-1.12-2.47-2.71-2.86-4.6-.42-2.02-.19-4.01,.25-6,1.56-7.17,3.13-14.34,4.7-21.51,1.53-6.98,3.08-13.96,4.6-20.94,.09-.43,.26-.68,.66-.86,4.01-1.78,8.01-3.58,12.02-5.36,.12-.05,.24-.08,.53-.18-.94,4.39-1.86,8.69-2.8,13.1h5.92c-.49,2.82-1.13,5.48-1.68,8.22h-6Z"/>
      <path class="cls-5" d="M312.73,19.91h11c-.45,2.11-.89,4.16-1.33,6.2,.06,.03,.12,.07,.19,.1,.15-.21,.33-.41,.46-.64,.72-1.2,1.52-2.33,2.56-3.3,2-1.85,4.41-2.69,7.07-2.91,.64-.05,1.29,0,2.05,0-.82,3.8-1.64,7.56-2.47,11.38-.38,0-.73,0-1.07,0-1.93-.05-3.83,.14-5.62,.93-1.91,.85-3.17,2.33-4.09,4.15-.77,1.53-1.07,3.19-1.42,4.85-1.14,5.4-2.28,10.8-3.42,16.2-.68,3.21-1.36,6.42-2.05,9.63-.06,.28-.15,.56-.24,.88h-11.82c3.41-15.84,6.8-31.6,10.21-47.46Z"/>
      <path class="cls-8" d="M254.59,156.41h-11.82c3.41-15.84,6.8-31.61,10.21-47.43h11.01c-.45,2.08-.88,4.09-1.32,6.1,.06,.03,.13,.05,.19,.08,.13-.16,.28-.31,.4-.48,.42-.61,.82-1.25,1.26-1.85,1.8-2.49,4.32-3.78,7.29-4.29,.77-.13,1.55-.17,2.33-.23,.24-.02,.49,.04,.84,.06-.82,3.82-1.62,7.56-2.44,11.4-.4,0-.78-.02-1.16,0-1.2,.09-2.42,.07-3.59,.32-3.58,.74-5.74,3.08-6.7,6.5-.67,2.37-1.12,4.81-1.63,7.22-1.57,7.37-3.12,14.75-4.69,22.13-.03,.16-.11,.3-.17,.48Z"/>
      <path class="cls-8" d="M415.87,67.42h-11.71c1.61-7.98,3.4-15.89,5.08-23.82,1.68-7.94,3.43-15.87,5.14-23.79h11.73c-3.42,15.9-6.83,31.74-10.24,47.61Z"/>
      <path class="cls-1" d="M427.2,14.97h-11.84c.76-3.49,1.51-6.91,2.26-10.38h11.82c-.76,3.49-1.5,6.93-2.25,10.38Z"/>
      <path class="cls-6" d="M483.16,60.27c0-4.14,3.26-7.41,7.43-7.43,4.2-.03,7.5,3.27,7.49,7.46-.02,4.14-3.31,7.45-7.42,7.46-4.17,0-7.5-3.32-7.5-7.49Zm1.39,0c.03,3.27,2.49,6.09,6.05,6.11,3.51,.02,6.04-2.7,6.1-6.05,.06-3.34-2.7-6.11-6.05-6.12-3.35-.02-6.1,2.72-6.11,6.07Z"/>
      <path class="cls-7" d="M489.06,60.91v3.62h-1.33v-8.67c.24-.02,.52-.06,.8-.07,.81,0,1.63-.03,2.44,.02,.51,.03,1.04,.14,1.51,.32,.84,.31,1.28,.97,1.34,1.87,.06,.89-.28,1.58-1.1,2.01-.14,.07-.28,.16-.47,.27,.83,.25,1.14,.85,1.25,1.62,.13,.86,.3,1.71,.46,2.64h-1.75c-.14-.78-.27-1.54-.4-2.3-.19-1.13-.46-1.37-1.59-1.42-.26-.01-.52,0-.78,0-.09,0-.18,.05-.39,.1Zm.06-1.56c.78,0,1.52,.14,2.23-.15,.55-.22,.76-.65,.66-1.26-.08-.51-.44-.7-.9-.71-.66-.02-1.33,0-1.99,0v2.12Z"/>
    </g>
  </g>
</svg>